<?xml version="1.0" encoding="UTF-8" standalone="no"?>
<svg
   xmlns:dc="http://purl.org/dc/elements/1.1/"
   xmlns:cc="http://creativecommons.org/ns#"
   xmlns:rdf="http://www.w3.org/1999/02/22-rdf-syntax-ns#"
   xmlns:svg="http://www.w3.org/2000/svg"
   xmlns="http://www.w3.org/2000/svg"
   xmlns:sodipodi="http://sodipodi.sourceforge.net/DTD/sodipodi-0.dtd"
   xmlns:inkscape="http://www.inkscape.org/namespaces/inkscape"
   width="20"
   height="20"
   viewBox="0 0 20 20"
   fill="none"
   version="1.1"
   id="svg4"
   sodipodi:docname="twitter.svg"
   inkscape:export-filename="C:\Users\wever\Desktop\julianabarros_logo.png"
   inkscape:export-xdpi="16122.35"
   inkscape:export-ydpi="16122.35"
   inkscape:version="1.0.1 (3bc2e813f5, 2020-09-07)">
  <metadata
     id="metadata10">
    <rdf:RDF>
      <cc:Work
         rdf:about="">
        <dc:format>image/svg+xml</dc:format>
        <dc:type
           rdf:resource="http://purl.org/dc/dcmitype/StillImage" />
      </cc:Work>
    </rdf:RDF>
  </metadata>
  <defs
     id="defs8">
    <clipPath
       clipPathUnits="userSpaceOnUse"
       id="clipPath86">
      <path
         id="path88"
         style="fill:#ff0000;fill-opacity:1;fill-rule:nonzero;stroke:none"
         d="m -2868.6406,-1342.2695 v 2700 h 1222.8164 c -28.3166,-106.4885 -2.795,-189.5437 116.7422,-263.6172 21.6567,-13.42 45.9154,-21.5989 70.3867,-29.3496 2.2646,-2.3188 4.5094,-4.6571 6.7012,-7.0449 10.6862,-11.6431 31.321,-37.4004 42.2011,-50.5547 16.5319,-19.98746 28.8681,-34.67293 44.7969,-53.68754 169.5079,-142.6997 -6.887,-9.40554 200.3125,-118.22265 -27.9539,9.98675 -55.9073,19.97223 -83.8613,29.95898 -0.6396,0.094 -2.4897,0.58888 -1.9199,0.2832 123.3213,-66.16841 72.5133,-45.63051 167.7558,-77.52929 80.0676,-28.39254 158.59264,-60.7044 238.64455,-89.17383 125.47892,-49.80464 251.56746,-98.12806 375.58593,-151.50195 25.21082,-11.3069 50.5813,-22.02113 76.13672,-32.22852 1.24667,-2.24185 2.58097,-4.56131 4.00782,-6.98633 6.93694,-36.58972 4.50562,-22.98256 31.625,-97.55859 0.0794,-0.21842 0.44956,-0.64813 0.55664,-0.53125 1.42922,-19.92882 5.21523,-40.11732 11.78711,-60.44531 4.7693,-14.75234 11.4186,-28.52202 19.33203,-41.63868 -9.7e-4,-1.91018 -9.6e-4,-3.82029 -0.002,-5.73046 -20.64936,-30.56656 -38.75088,-59.89976 -50.46289,-83.0293 -2.97234,13.48819 -5.95831,26.95735 -9.03711,40.35547 2.31401,9.82207 4.82341,20.53757 7.78516,33.33984 2.41382,10.43383 -10.7174,-20.60016 -8.30859,-31.03516 0.17697,-0.76664 0.34716,-1.53759 0.52343,-2.30468 -27.35967,-116.13143 -12.77084,-40.41333 -32.18945,-149.66797 -10.85484,-49.184482 -21.54106,-98.405766 -32.56445,-147.552736 -33.32234,-148.565104 -24.92079,-103.813304 -55.08985,-248.929684 -3.91518,-18.83245 -28.64589,-48.82764 -11.0664,-56.63477 16.72393,-7.42717 32.83652,-14.72008 48.51953,-21.91016 -30.96716,1.41557 -54.47346,-1.56779 -53.35156,-15.26367 -42.62839,-4.52791 -85.24327,-12.78809 -125.74414,-21.13281 -60.00542,-13.29565 -120.01814,-26.56735 -179.56055,-41.82227 L -883.75,-462.98633 c -10.85982,-4.38397 -21.53559,-9.24946 -32.57812,-13.15039 -0.55363,-0.19557 -0.72218,1.15069 -1.3086,1.17969 -1.72856,0.0856 -3.4601,-0.36856 -5.11914,-0.86133 -49.23731,-14.6244 -42.37519,-12.66803 -82.15824,-26.9375 -10.5138,-4.81956 -21.1189,-9.44859 -31.6601,-14.21094 -0.5979,-0.0971 -1.1943,-0.19039 -1.7813,-0.25 -81.3671,-8.26213 -137.8018,-30.89526 -201.0527,-69.33789 -8.8814,-2.52638 -17.7247,-5.18419 -26.4746,-8.125 -12.9262,-4.34441 -25.3044,-10.19762 -38.086,-14.94336 -5.4944,-1.54811 -17.0196,-5.07116 -16.2929,-5.60742 -18.3498,-5.85583 -36.8015,-11.42461 -54.7285,-18.44336 -36.3857,-14.24561 -60.8385,-35.07555 -93.6153,-57.78906 -8.2362,-7.05627 -16.4728,-14.11171 -24.709,-21.16797 0.6113,1.03928 2.9659,3.53274 1.834,3.11719 -3.1364,-1.15151 -5.2975,-6.83225 -8.3691,-5.51758 -0.7369,0.31537 7.2422,6.27393 9.3672,7.88281 -22.8789,-13.44464 -45.7577,-26.88934 -68.6367,-40.33398 -12.6096,-9.86121 -25.2186,-19.72279 -37.8282,-29.58399 -2.5697,-2.00961 -5.1404,-4.01829 -7.7089,-6.02929 -10.0982,-4.41558 -20.1999,-8.82276 -30.2833,-13.27149 -47.7641,-26.85442 -87.8215,-64.30705 -126.0742,-102.97656 -5.1936,-5.25019 -21.0321,-20.68892 -15.3301,-15.99609 8.5944,7.07295 16.0299,15.44685 24.045,23.16992 12.2406,8.16058 22.2577,21.80009 36.7226,24.48242 76.7071,14.22436 162.2515,59.08275 232.6543,25.4707 16.1939,-7.73136 35.1008,-17.4014 55,-28.45508 -23.5956,-1.77515 -50.7703,-9.36081 -82.2246,-23.92382 -6.8945,-0.32618 -13.7869,-0.68975 -20.6699,-1.19922 -5.3865,-0.39871 -10.8857,-0.62862 -16.0547,-2.19531 -33.7673,-10.23462 -135.7956,-34.32113 -100.5312,-33.14063 28.433,0.95181 53.752,1.93866 76.5273,2.94922 -78.6327,-49.73408 -178.7276,-134.52556 -307.1699,-265.83986 -0.8846,8.2485 -1.9963,16.4822 -2.252,24.7695 -0.315,10.2107 -0.2886,20.4597 0.4414,30.6504 1.8339,13.8901 4.5566,27.6671 6.0254,41.6016 1.3368,12.6821 -4.5897,-25.1247 -5.7265,-37.8262 -0.1126,-1.2573 -0.2087,-2.5161 -0.2989,-3.7754 -0.2507,-1.8988 -0.4873,-3.7994 -0.6992,-5.7031 -1.1398,-10.2389 -0.8381,-25.217 -0.7871,-35.9492 0.1395,-5.059 0.5046,-10.4377 1.0762,-16.0664 -34.6326,-36.7182 -10.3796,-82.1891 35.3613,-125.1074 3.1852,-7.0523 6.5702,-14.0142 10.1348,-20.8418 z m 1548.3789,727.03903 c 3.0061,0.95932 6.0079,1.92573 9.0058,2.9082 -2.7257,-1.23939 -5.3798,-2.82847 -8.3281,-2.97265 -0.3909,-0.0191 -0.5992,0.007 -0.6777,0.0645 z m 9.0058,2.9082 c 0.5578,0.25361 1.1167,0.49675 1.6836,0.70508 1.8781,0.63497 3.7455,1.3042 5.6035,1.99414 2.3959,0.67506 3.7394,1.00466 2.252,0.49414 -3.171,-1.08836 -6.3523,-2.14899 -9.5391,-3.19336 z m 790.97856,231.86133 c 7.77305,0.82564 15.54542,1.52311 23.30664,2.07813 -3.10599,-0.86747 -6.20597,-1.75767 -9.29688,-2.6836 -4.83957,-0.35683 -9.4701,-0.76668 -13.73047,-1.24609 -0.14434,0.63945 -0.2303,1.25348 -0.27929,1.85156 z m 0.27929,-1.85156 c 0.19793,-0.87684 0.49337,-1.79695 0.87696,-2.75391 -7.83822,-2.51945 -15.64009,-5.14987 -23.41797,-7.80859 -7.12576,5.27051 4.38449,8.51938 22.54101,10.5625 z m 0.87696,-2.75391 c 4.27236,1.37328 8.55624,2.71269 12.85351,4 10.20687,0.75257 21.28078,1.24353 31.92774,1.59571 -12.4202,-5.60611 -24.78408,-11.3541 -37.09766,-17.22657 -3.83549,4.41866 -6.33783,8.27346 -7.68359,11.63086 z m 22.15039,6.6836 c 13.03493,3.64051 26.20755,6.72569 39.59179,8.80078 0.87848,-0.40533 1.72635,-0.80444 2.60157,-1.20899 -4.73373,-2.06419 -9.45614,-4.15444 -14.17188,-6.26367 -9.30789,-0.20444 -18.65543,-0.65834 -28.02148,-1.32812 z m 39.59179,8.80078 c -3.15453,1.45551 -6.35003,2.91913 -9.54687,4.38476 6.87654,-0.31433 14.128,-0.85551 21.55273,-1.53515 -1.35056,-0.57842 -2.70177,-1.15597 -4.05078,-1.73828 -2.66025,-0.32857 -5.31162,-0.70149 -7.95508,-1.11133 z m 81.88086,588.72461 c 3.10674,-14.09805 6.21243,-28.21314 9.42774,-42.3086 -30.52087,-15.96372 -28.25886,5.11982 -9.42774,42.3086 z m 9.42774,-42.3086 c 5.95966,3.11716 13.17307,7.651 21.75195,13.74805 -0.94537,-3.34246 -1.8952,-6.68284 -2.83984,-10.02539 -3.87744,-13.71999 -7.1847,-27.31556 -10.06641,-40.91211 -3.08786,12.35198 -6.01042,24.75994 -8.8457,37.18945 z m 21.75195,13.74805 c 2.81255,9.94407 5.64032,19.88411 8.61914,29.7793 0.20822,0.69167 1.12494,2.59639 1.08789,1.875 -0.0751,-1.4624 -0.1611,-2.9248 -0.24414,-4.38672 -1.52569,1.43485 -1.87574,-3.11878 -2.5625,-22.24805 -2.39571,-1.78283 -4.68882,-3.44775 -6.90039,-5.01953 z m 9.46289,27.26758 c 1.53959,-1.44792 4.2945,-8.7223 9.80469,-12.54492 10e-6,-0.095 -2e-5,-0.19011 0,-0.28516 -2.85433,-2.20029 -5.72483,-4.40698 -8.66016,-6.63672 -0.87569,-0.66519 -1.7139,-1.28527 -2.5664,-1.92383 0.52313,7.12742 1.01664,14.2561 1.42187,21.39063 z m 9.80469,-12.54492 c -0.005,32.28938 -4.3e-4,64.5778 0.0156,96.86719 0.61104,0.90449 1.2323,1.81227 1.84766,2.71874 7.52738,-12.09019 16.11506,-23.63323 25.26758,-34.89453 0.48614,-0.67284 0.9672,-1.34346 1.46484,-2.01953 4.2456,-9.97365 8.47764,-19.95232 12.53711,-29.99218 -0.72268,-0.6039 -1.4388,-1.20614 -2.16797,-1.8125 -5.46504,3.77733 -5.57322,2.52012 -2.24414,-1.84961 -11.38017,-9.41806 -23.52597,-19.12928 -36.52148,-29.15039 -0.0663,0.0445 -0.1337,0.0874 -0.19922,0.13281 z m 36.7207,29.01758 c 0.74322,0.61507 1.50757,1.23706 2.24414,1.84961 0.99725,-0.68929 2.20953,-1.5817 3.57422,-2.61719 -0.81368,-1.18315 -1.61168,-2.31506 -2.40039,-3.41602 -1.35618,1.58837 -2.5233,3.00926 -3.41797,4.1836 z m 4.41211,3.66211 c 2.3715,1.98166 4.72499,3.95518 7.02735,5.91015 0.22041,-0.24927 0.44799,-0.5002 0.66992,-0.75 -2.09019,-3.32922 -4.10835,-6.4078 -6.05274,-9.24609 -0.54347,1.36372 -1.09413,2.72468 -1.64453,4.08594 z m 7.69727,5.16015 c 0.17758,0.28285 0.36431,0.6002 0.54297,0.88672 8.36313,-9.41664 16.84793,-18.78057 25.1875,-28.24023 -6.46665,6.48973 -13.52258,14.07365 -17.44336,18.25586 -2.8844,3.0767 -5.62442,6.10054 -8.28711,9.09765 z m 0.54297,0.88672 c -0.15135,0.17041 -0.30188,0.34127 -0.45313,0.51172 0.54522,0.46379 1.06801,0.91857 1.60938,1.38086 -0.38342,-0.62376 -0.77769,-1.28545 -1.15625,-1.89258 z m 1.15625,1.89258 c 3.42679,5.57487 7.04262,11.79709 10.86914,18.77539 1.05229,-2.18255 2.09593,-4.3378 3.16992,-6.58789 -4.52191,-4.00002 -9.21602,-8.0689 -14.03906,-12.1875 z m 10.86914,18.77539 c -14.34798,29.75886 -26.69363,53.312 -37.30274,72.0957 24.07213,33.66796 49.39824,66.48125 70.91016,91.91016 10.66276,-5.91359 21.36291,-11.7624 32.11523,-17.52344 -26.82892,-68.11334 -48.38912,-114.87178 -65.72265,-146.48242 z m -37.30274,72.0957 c -5.08078,-7.10612 -10.09229,-14.24415 -15.01172,-21.36133 -3.18538,8.35788 -6.18422,16.78235 -8.92382,25.29883 0.10111,9.63252 0.17878,19.26374 -0.10743,28.89063 -0.26361,8.86734 -3.30212,-18.14471 -0.63476,-26.60547 0.24085,-0.76397 0.49693,-1.52275 0.74219,-2.28516 -0.0633,-6.02797 -0.13364,-12.05688 -0.13672,-18.08398 -4.5e-4,-0.87762 4.4e-4,-1.75519 0,-2.63282 -7.96488,22.47862 -10.06722,44.51583 -8.49805,68.35547 8.43951,-11.54565 19.11287,-27.74942 32.57031,-51.57617 z m -15.01172,-21.36133 c 6.02856,-15.81789 12.68124,-31.41369 19.32227,-47.01367 -0.42895,0.52358 -0.84887,1.05138 -1.27539,1.57617 -9.69915,13.42408 -17.13019,26.22082 -22.64453,38.75977 1.5187,2.22212 3.05694,4.4487 4.59765,6.67773 z M -1834.6309,-1342.2695 c -2.8393,6.0396 -5.5394,12.3168 -8.0996,18.8359 6.8808,-6.3519 14.222,-12.6413 21.8965,-18.8359 z m 233.4747,560.70505 c 1.1796,0.74593 2.3731,1.47065 3.5917,2.15625 11.4652,6.45032 48.2589,20.9727 36.2793,15.53711 -13.2407,-6.00782 -26.5507,-11.86396 -39.871,-17.69336 z m 1110.18745,289.73437 c 6.63165,2.49926 13.08648,3.78416 15.80859,1.46289 -5.75346,-0.59355 -10.91731,-1.05081 -15.80859,-1.46289 z m 58.625,362.3125 c -3.35658,18.36293 2.60605,36.395018 24.24219,50.605471 -10.16627,-20.56798 -17.60507,-36.111811 -24.24219,-50.605471 z m -484.51563,976.91602 c -2.03986,0.6973 -4.12201,1.41126 -6.20507,2.0664 0.5983,-0.0568 1.16904,-0.11227 1.77539,-0.16992 1.47874,-0.628 2.954,-1.26247 4.42968,-1.89648 z m -17.87109,7.54492 c -19.86713,4.18232 -41.29009,8.82521 -53.54492,10.75391 -0.37196,4.64776 -0.74329,9.29559 -1.11523,13.94335 0.21816,-0.0512 0.43612,-0.1031 0.65429,-0.15429 17.4523,-9.24297 35.72616,-16.89634 54.00586,-24.54297 z" />
    </clipPath>
  </defs>
  <sodipodi:namedview
     pagecolor="#ffffff"
     bordercolor="#666666"
     borderopacity="1"
     objecttolerance="10"
     gridtolerance="10"
     guidetolerance="10"
     inkscape:pageopacity="0"
     inkscape:pageshadow="2"
     inkscape:window-width="1366"
     inkscape:window-height="705"
     id="namedview6"
     showgrid="false"
     inkscape:zoom="20.48"
     inkscape:cx="3.8693216"
     inkscape:cy="7.165801"
     inkscape:window-x="-8"
     inkscape:window-y="-8"
     inkscape:window-maximized="1"
     inkscape:current-layer="svg4" />
  <path
     style="fill:#000000;stroke:none"
     d="m -1762.7993,-301.43038 c 48.01,-11.43 117.15,10.86 120.91,67.00001 2.06,30.74 -18.6,64.83 -37.91,87 53.39,7.88 74.1,64.600002 67.72,111.999992 -10.19,75.6 -69.02,132.14 -138.72,156.339998 -15.08,5.24 -30.26,8.36 -46,10.91 -5.49,0.88 -14.68,3.2 -19.94,1.01 -6.54,-2.73 -3.75,-10.29 1.96,-11.73 13.93,-3.5 28.86,-3.63 42.98,-7.16 62.68,-15.669998 117.15,-58.889998 139.68,-120.3699979 10.5,-28.6300001 13.77,-61.7900001 0.06,-89.9999901 -7.84,-16.130002 -21.35,-28.120002 -37.74,-35.130002 -4.69,-2 -12.83,-5.48 -18,-4.1 -7.67,2.06 -16.04,13.09 -22,18.23 -14.37,12.38 -29.78,23.950002 -46,33.800002 -12.3,7.47 -24.67,14.84999 -38,20.33999 -4.82,1.98 -14.93,2.78 -18.01,7.16 -3.21,4.57 -3.31,13.3 -4.39,18.7 -2.93,14.66 -5.72,29.3400001 -8.6,44.0000001 -10.31,52.3899999 -25.7,107.5299979 -28,160.9999979 h 1 c 2.06,-5.37 10.22,-6.99 11.64,0.02 1.64,8.14 -11.02,32.28 -21.36,25.8 -7.68,-4.81 -3.8,-21.59 -3.3,-28.82 2.04,-29.98 8.37,-60.55 14.22,-89.999998 8.58,-43.16 18.28,-86.55 25.18,-130 1.03,-6.46 -2.13,-12.33 -0.71,-18.99999 1.76,-8.24 7.25,-14.92 9.29,-23 8.79,-34.830002 14.39,-70.770002 21.44,-106.000002 5.5,-27.5 13.01,-55.18 16.6,-83.00001 -33.32,14.34 -65.92,27.04001 -80.39,64.00001 -6.57,16.82 -7.72,34.26 -5.33,52 0.67,4.93 4.27,14.81 -2.39,17.21 -6.46,2.34 -8.38,-5.71 -9.14,-10.21 -2.16,-12.83 -3.09,-27.09 -1,-40 6.2,-38.23 30.76,-67.05 65.25,-83.74001 10.36,-5.01 22.94,-6.51 32.85,-11.91 4.57,-2.49 3.16,-10.03 9.15,-10.92 5.23,-0.78 6.73,4.58 7,8.57 m -922,173.00001 c 19.384,-4.01 38.311,-8.89 58,-11.57 5.096,-0.7 19.786,2.28 10.682,9.83 -3.83,3.17 -11.933,2.72 -16.682,3.49 -12.747,2.09 -25.442,4.33 -38,7.38 -6.165,1.5 -15.259,2.23 -17.982,8.89 -10.015,24.490002 -12.73,55.119992 -18.442,80.979992 -12,54.33 -24.306,108.59 -35.915,162.999998 -5.734,26.88 -17.501,74.15 -51.661,76.91 -27.476,2.22 -47.045,-15.34 -58.752,-38.91 -18.367,-36.98 -17.757,-82.459998 -9.848,-121.999998 11.762,-58.7999999 48.465,-110.02 98.6,-142.30999 13.687,-8.810002 27.963,-16.430002 43,-22.680002 6.229,-2.59 17.708,-4.45 22.272,-9.52 6.526,-7.24 7.209,-27.03 9.379,-36.49 5.589,-24.35 11.522,-48.62 17,-73 2.857,-12.72 6.849,-29.25 2.549,-41.98001 -4.151,-12.3 -17.88,3.34 -22.026,7.98001 -12.314,13.79 -25.044,36.8 -23.964,56 0.377,6.7 2.889,13.22 7.833,17.81 3.549,3.3 10.935,5.99 9.479,12.08 -1.816,7.6 -11.926,2.36 -15.521,-0.42 -29.224,-22.58 -7.612,-69.24 10.615,-91.47001 7.132,-8.7 17.979,-20.59 30.384,-19.89 18.152,1.02 18.328,26.70001 16.576,39.89001 -5.664,42.61 -18.899,83.94 -27.576,126 m 884,14 c 21.32,-14.84 40.08,-26.63 66,-32 9.39,-1.94 18.42,-3 28,-3 5.45,0 11.24,1.02 15.41,-3.15 22.01,-22.02 45.49,-65.01 34.15,-96.85 -10.89,-30.58001 -44.17,-37.69001 -72.56,-41.42001 -8.26,-1.09 -27.4,-2.73 -34.49,2.44 -3.12,2.28 -3.21,8.5 -3.91,11.98 -2.06,10.31001 -3.77,20.73001 -6.02,31.00001 -9.43,42.98 -20.95,87.39 -26.58,131 m -704,72.999992 h -1 c -9.772,20.66 -28.927,43.9500001 -47,57.76 -7.52,5.75 -20.134,13.67 -28.66,5.01 -10.251,-10.41 -4.889,-30.9799999 -4.34,-43.77 -4.984,5.72 -9.54,11.68 -15,16.9800001 -10.03,9.75 -25.88,12.05 -30.946,-3.98 -3.746,-11.8500001 -1.559,-24.4800001 2.279,-36.0000001 1.771,-5.32 4.913,-17.8 12.624,-16.46 4.026,0.7 5.349,4.95 4.329,8.46 -3.011,10.37 -8.499,18.75 -9.077,30 -0.176,3.43 0.536,13.7100001 5.846,12.82 10.777,-1.79 21.275,-22.83 27.42,-30.81 3.005,-3.89 7.867,-9.84 13.416,-6.83 4.272,2.32 4.343,7.58 3.939,11.82 -1.092,11.49 -3.831,22.37 -3.83,34.0000001 0,3.85 -1.11,14.4799999 5.055,14.3999999 5.159,-0.06 11.505,-7.1499999 14.945,-10.4399999 12.655,-12.1000001 23.562,-26.4700001 33.33,-40.9600001 4.76,-7.06 9.423,-19.91 19.67,-17 8.881,-31.58999 14.91,-64.149992 22.873,-95.999992 9.281,-37.12 16.612,-76.33 33.385,-111 3.55,-7.34 18.915,-39.26001 29.884,-22.89001 5.434,8.11 0.669,23.42001 -1.721,31.89001 -7.877,27.91 -21.484,53.95 -35.842,79 -18.186,31.72 -24.1,67.42 -32.003,103.000002 -10.713,48.22999 -22.375,96.34999 -31.152,144.99999 -3.301,18.3 -12.092,41.389998 -10.52,59.959998 0.293,3.45 3.423,5.6 3.774,9.05 0.573,5.65 -3.526,14.45 -8.693,16.95 -12.679,6.13 -8.612,-20.57 -7.855,-25.96 4.293,-30.54 10.825,-60.769998 16.87,-90.999998 5.535,-27.68 10.926,-55.67 18,-83 m 77,-229.999992 c -11.807,20.23 -22.575,46.72 -26,70 h 1 l 21.859,-51 3.141,-19 m 618,199.999992 c 27.74,-4.09999 58.58,-28.31999 80,-45.209992 7.88,-6.21 17.18,-12.56 23,-20.79 -33.44,0 -79.46,14.09 -97.21,45.000002 -3.6,6.26 -4.01,14.11 -5.79,20.99999 m 382,14 c 12.37,-1.01 22.83,-7.93 33,-14.5 4.54,-2.93999 11.27,-8.29999 16.95,-5.31999 9.22,4.86 1.7,18.72999 -0.37,25.81999 -7.39,25.21 -15.48,50.0800001 -20.16,76 -0.95,5.28 -6.67,29.34 0.86,31.54 4.19,1.22 9.79,-5.91 12.14,-8.55 9.83,-11.06 18.38,-22.69 26.58,-34.99 14.51,-21.7799999 32.08,-47.68 40.24,-72.71 1.64,-5.06 -1.54,-12.72999 -1.15,-18.28999 0.78,-11.08 6.31,-21.930002 12.43,-31.000002 5.48,-8.12 27.61,-34.34 37.54,-17.96 6.11,10.08 -3.25,27.820002 -7.81,36.960002 -5.28,10.57 -12.93,21.70999 -16.25,32.99999 12,-1.55 22.02,-7.86 32,-14.34 4.55,-2.94999 11.14,-8.10999 16.96,-5.89999 11.08,4.21 -0.02,25.83999 -2.24,33.23999 -9.34,31.12 -24.89,69.25 -18.72,102 14.86,-4.41 25.86,-24.02 34.42,-36 11.25,-15.7399999 21.44,-32.8 30.32,-50 4.57,-8.85 8.41,-22.77 15.65,-29.68 4.6,-4.39 14.62,-5.17 20.4,-9.24 4.63,-3.26 6.6,-8.79999 12.21,-11.06999 20.31,-8.22 24.24,23.09999 23.98,35.98999 -0.08,4.31 -3.26,13.33 3.08,14.59 12.89,2.57 29.59,-10.46 37.94,-18.6 6.16,-6.01 9.92,-11.91 19,-11.99 2.67,-18.07999 17.09,-33.36999 35,-37.17999 6.48,-1.38 26.27,-2.98 26.74,7.19 0.48,10.32 -16.1,3.45 -21.74,4.45 -12.5,2.24 -22.51,11.87 -26.93,23.53999 -11.67,30.75 25.08,63.9300001 35.93,90 10.57,-14.25 22.54997,-27.3999999 33.91997,-41 12.93,-15.46 25.97,-31.05 39.5,-45.98 3.86,-4.26 14.88,-8.01 13.23,1.98 -1.52,9.26 -15.16,20 -21.07,27 -13.28,15.71 -26.73,31.2800001 -40,47 -6.36997,7.53 -14.56997,15.19 -19.14997,24 -3.32,6.39 0.77,15.13 0.47,22 -0.58,13.08 -3.6,26.14 -9.22,37.999998 -5.83,12.29 -23.6,38.61 -40.66,32.1 -14.3,-5.45 -4.59,-28.92 -0.6,-38.099998 6.04,-13.87 14.89,-26.47 23.25,-39 3.11,-4.67 9.87,-11.17 10.06,-17 0.32,-9.79 -9.36,-21.3 -14.39,-29 -10.92,-16.7399999 -24.91,-37.31 -25.34,-58 -11.45,12.43 -24.43,23.68 -41,28.56 -6.19,1.83 -16.38,-0.05 -21.61,2.64 -6.34,3.26 -9.56,13.5000001 -16.39,17.6800001 -22.46,13.7399999 -35.48,-8.13 -40,-26.8800001 -15.35,26.2800001 -29.66,52.75 -49.58,76 -7.15,8.34 -18.02,20.45 -30.42,17.61 -13.34,-3.06 -10.87,-22.63 -10,-32.61 2.76,-31.5299999 11.15,-68.01 24,-97 -13.3,6.22 -25.29,16.53 -41,14.83 -5.1,-0.56 -9.29,-3.12 -14,-4.83 -3.81,13.22 -12.36,26.1 -19.15,38 -12.43,21.7800001 -25.16,44.27 -42.02,63 -7.33,8.15 -24.56,27.24 -36.61,15.72 -8.34,-7.98 -5.28,-24.62 -4.06,-34.72 3.81,-31.77999988 15.69,-61.09 22.84,-92 -17.09,10.46 -32.2,19.08 -52,11 -8.76,21.04 -22.33,45.3600001 -40,60.08 -9.51,7.91 -22.44,12.94 -32.91,3.59 -15.47,-13.81999988 -10.11,-35.09 -18.09,-51.67 -6.61,13.26 -19.04,27.03 -30,36.90000012 -5.04,4.52999998 -13.12,7.69999998 -18.61,1.86999998 -4.33,-4.6 -3.61,-11.9300001 -3.35,-17.7700001 0.76,-17.15 8.42,-35.3 16.83,-50 7.46,-13.02999 18.29,-24.38999 34.13,-23.98999 7.22,0.19 24.55,7.24 22.07,16.97 -0.91,3.57999 -4.73,5.48999 -8.07,3.96999 -8.43,-3.80999 -12.77,-12.71999 -23,-6.38999 -19.86,12.29999 -30,45.30999 -30,67.4399901 12.58,-12.5800001 23.37,-26.6500001 33.85,-41.0000001 2.94,-4.02 7.77,-13.48 14.09,-11.35 4.99,1.68 4.81,10.04 5.02,14.35 0.65,13.32 2.33,27.45 7.11,40.0000001 2.52,6.64000002 7.49,15.95 15.93,11.98 16.78,-7.89 28.94,-31.2900001 37.22,-46.9800001 2.55,-4.83 7.34,-11.33 8.21,-16.71 0.76,-4.69 -2.65,-11.2 -2.72,-16.28999 -0.18,-12.28 5.06,-23.98 11.81,-34.000002 5.83,-8.65 13.66,-18.23 23.48,-22.47 11.42,-4.93 16.94,4.09 15.83,14.47 -2.29,21.340002 -17,40.100002 -25.83,58.999992 m -11,-7 h 1 l 24,-53.999992 c -18.02,6.98 -31.6,35.900002 -25,53.999992 m 133,-1 h 2 c 7.33,-17.51999 20.4,-33.70999 23,-52.999992 -16.55,7.72 -31.68,35.150002 -25,52.999992 m -1397,-44.999992 c -23.641,11.060002 -46.816,20.030002 -68,35.900002 -53.931,40.37999 -85,103.92999 -85,171.09999 0,33.389998 6.44,93.579998 48,101.689998 29.15,5.68 42.911,-28.24 49.29,-50.69 17.409,-61.269998 27.387,-125.759998 41.134,-187.999998 3.611,-16.35 7.39,-32.64999 11,-48.99999 1.321,-5.98 5.364,-15.110002 3.576,-21.000002 m 269,9.43 c 11.123,-2.97 11.255,10.990002 1.996,13.920002 -12.838,4.06 -12.894,-11 -1.996,-13.920002 m 70,92.5699921 c 13.937,-11.1000001 24.396,-27.7700001 34.884,-42.0000001 3.025,-4.1 8.357,-13.88 14.813,-9.82 4.478,2.82 3.052,10.4 3.473,14.82 1.199,12.59 2.371,26.08 6.896,38.0000001 1.992,5.25 5.971,14.72 12.934,13.98 7.753,-0.82 14.53,-9.47 19.08,-14.98 11.36,-13.7900001 19.01,-29.5600001 27.72,-45.0000001 2.07,-3.67 5.6,-6.25 7.4,-10.04 3.3,-6.97 3,-20.15999 9.22,-25.21999 3.89,-3.16 8.78,-0.38 9.26,4.26 0.79,7.62 -4.3,17.72999 -6.39,24.99999 -2.18,7.58 -5.14,15.19 -6.29,23 h 1 c 3.83,-12.09 17.98,-33.36 33,-29.44 15.42,4.02 18.1,26.85 22.7,39.44 1.93,5.29 5.77,15.03 12.3,15.86 7.97,1.0200001 16.68,-12.45 20.57,-17.86 6.42,-8.92 11.12,-19.11 17.67,-27.87 2.44,-3.26 6.24,-4.84 8.67,-8.17 5.89,-8.10999 10.21,-16.63999 19.09,-22.02999 11.78,-7.16 31.34,-4.68 37.81,9.07 1.95,4.16 -0.88,9.26999 -5.81,8.56999 -7.68,-1.08 -10.91,-11.00999 -20,-9.15999 -6.92,1.41 -13.1,9.12999 -16.96,14.58999 -10.85,15.36 -18.03,36.17 -18.04,55.0000001 13.2,-13.2000001 24.51,-27.8800001 35.42,-43.0000001 2.82,-3.89 8.38,-13.21 14.26,-8.39 4.2,3.43 3.08,11.61 3.41,16.39 0.87,12.58 2.86,26.23 7.53,38.0000001 1.8,4.55000002 5.07,10.83 10.38,11.93 6.16,1.27 12.7,-6.20999998 16.42,-10.1 12.27,-12.8400001 20.51,-28.5000001 29.16,-43.8300001 1.76,-3.13 12.01,-20.27 15.09,-7.89 1.69,6.79 -5.88,17.17 -8.98,22.89 -9.69,17.92 -29.36,56.08 -54.69,51.67 -21.36,-3.72 -25.99,-39.34 -26,-56.67 -13.1,10.82 -19.71,28.8800001 -34.01,38.7800001 -17.99,12.4399999 -21.31,-11.29 -18.99,-23.7800001 h -1 c -2.71,5.45 -6.66,10.66 -11.04,14.9100001 -2.67,2.59 -5.69,4.95 -8.96,6.74000002 -22.98,12.60999988 -33.55,-15.49000012 -38.72,-32.65000012 -1.37,-4.56 -5.43,-21.27 -12.3,-19.5 -6.82,1.75 -12.23,12.93 -15.53,18.5 -11.01,18.61 -16,42.1000001 -27.87,59.77 -3.01,4.48 -9.95,3.69 -11.25,-1.79 -1.48,-6.25 1.74,-15.7999999 3.09,-21.9799999 1.47,-6.68 3.2,-13.3100001 4.58,-20.0000001 h -1 c -6.78,17.88000012 -34.108,49.33 -54.907,33.21 -13.513,-10.4699999 -16.961,-36.26 -17.093,-52.21 -12.669,11.25 -19.516,29.4000001 -34.001,38.8900001 -14.486,9.4999999 -21.241,-5.12 -19.713,-17.8900001 0.644,-5.39 1.992,-10.64 2.714,-16 -15.326,16.64 -40.839,53.85 -68,47.61 -22.088,-5.08 -13.243,-45.78 -9.88,-60.61 1.177,-5.19 1.503,-13.94 6.108,-17.39 6.282,-4.72 10.117,3.07 9.102,8.39 -2.747,14.4 -8.064,29.12 -6.6,44 0.521,5.3000001 0.9,14.1000001 8.285,13.7500001 11.065,-0.52 22.782,-13.5500001 29.985,-20.7500001 12.7,-12.7 21.804,-29.56 34.518,-41.68 2.575,-2.46 6.375,-2.07 8.848,-4.64 6.152,-6.38 9.511,-14.47999 16.634,-20.34999 10.849,-8.95 36.807,-9.5 41.392,7.67 1.216,4.55999 -2.823,8.67999 -7.393,7.20999 -6.416,-2.05 -9.375,-9.55999 -16.999,-8.97999 -7.581,0.58 -13.894,8.09999 -18.076,13.76999 -11.25,15.25 -18.872,37.01 -18.924,56.0000001 m 1222,-26.0000001 c 2.2,-7.44 1.02,-17.53 -0.9,-25 -0.68,-2.64 -2.29,-7.73 -6.01,-6.65 -14.77,4.27 -0.69,28.1 6.91,31.65 m -26,-17 c -7.8,10.23 -11.94,27.11 -4.91,39 8.42,14.2600001 24.25,2.4500001 27.91,-9 l -17.47,-17 -5.53,-13 m -1063.67,15.67 0.34,0.66 -0.34,-0.66 m -140.997,2 0.334,0.66 -0.334,-0.66 m 1345.667,93.33 c -12.91,19.13 -27.25,38.99 -32,61.999998 7.04,1.3 13.15,-5.83 17.1,-11 8.95,-11.709998 21.26,-35.839998 14.9,-50.999998 m -1196,204.999998 v 127 h -13 v -127 h 13 m -164,64 v 1 c 27.091,2.37 36.465,37.41 14.961,53.84 -18.218,13.92 -49.409,8.16 -70.961,8.16 v -119 c 20.579,0 48.528,-4.66 66.999,6.35 23.092,13.77 10.108,43.66 -10.999,49.65 m 555,63 v -119 c 22.34,0 49.83,-4.24 70,7.46 32.91,19.1 34.84,78.66 4,100.75 -20.86,14.95 -49.85,10.79 -74,10.79 m -597,-107 v 39 c 12.699,0 30.471,2.94 41.985,-3.56 10.355,-5.84 11.38,-24.79 0.975,-31.07 -11.874,-7.17 -29.725,-4.37 -42.96,-4.37 m 611,0 v 95 c 16.18,0 34.89,1.86 49,-7.79 22.79,-15.58 25.3,-62.52 1.99,-78.99 -14.77,-10.43 -33.91,-8.22 -50.99,-8.22 m -488,16.29 c 42.74,-5.26 61.88,53.68 33.91,81.62 -6.99,6.97 -16.373,9.71 -25.91,10.8 -53.909,6.19 -60.326,-85.99 -8,-92.42 m 143,0 c 42.74,-5.26 61.88,53.68 33.91,81.62 -6.99,6.97 -16.37,9.71 -25.91,10.8 -53.91,6.19 -60.33,-85.99 -8,-92.42 m 125,5.71 -4,11 c -10.84,-2.96 -22.58,-7.65 -34,-4.2 -7.04,2.13 -12.67,9.19 -7.35,16.02 13.07,16.76 47.35,10.27 47.35,38.18 0,3.45 -0.14,6.79 -1.53,10 -7.1,16.37 -28.56,16.47 -43.47,15.07 -4.82,-0.45 -13.98,-0.98 -16.97,-5.49 -1.97,-2.96 -1.03,-8.18 -1.03,-11.58 13.14,2.26 25.14,9.26 39,4.95 8.4,-2.62 14.51,-11.13 7.77,-18.91 -11.64,-13.42 -36.47,-10.72 -44.72,-28.04 -5.49,-11.53 0.61,-24.67 11.95,-29.53 14.01,-6.01 33.62,-4.49 47,2.53 m 138,43 h -61 c 0.03,4.16 0.49,8.01 1.72,12 8.2,26.54 35.34,19.44 55.28,14 0,3.32 0.98,8.64 -1.03,11.49 -2.17,3.1 -8.51,4.1 -11.97,4.84 -11.58,2.46 -25.09,2.42 -36,-2.65 -19.81,-9.21 -22.82,-30.18 -21.96,-49.68 1.35,-30.54 37.75,-52.54 62.87,-30.53 11.95,10.47 12.09,25.96 12.09,40.53 m 219,-48.71 c 42.23,-5.19 60.87,52.17 34.7,80.62 -7.05,7.66 -16.68,10.62 -26.7,11.8 -54.15,6.39 -60.56,-85.97 -8,-92.42 m 129,3.71 -4,12 c -11.99,-2.48 -24.14,-7.22 -35,1.39 -16.37,12.98 -16.2,51.3 4,61.04 11.01,5.3 23.12,0.48 34,-2.43 0,3.4 0.94,8.62 -1.03,11.58 -2.62,3.95 -9.78,4.07 -13.97,4.58 -12.52,1.5 -26.39,-0.15 -35.96,-9.26 -18.2,-17.32 -17.75,-61.27 3.96,-75.8 15.11,-10.1 31.57,-6.87 48,-3.1 m 91,45 h -62 c 0.37,4.7 1.06,9.56 2.71,14 9.38,25.3 36.05,16.45 55.29,12 0,3.27 0.98,8.55 -1.03,11.35 -2.31,3.23 -8.36,4.12 -11.97,4.84 -11.76,2.34 -23.68,2.43 -35,-1.9 -18.76,-7.16 -24.76,-28.01 -23.96,-46.29 1.32,-30.22 35.4,-59.53 62.95,-34.81 11.78,10.57 13.01,25.98 13.01,40.81 m 78,-43 -4,11 c -5.72,-1.32 -11.17,-3.86 -17,-4.7 -9.04,-1.3 -37.54,2.78 -23.77,17.51 14.04,15.03 59.35,14.97 44.86,47.19 -7.24,16.13 -28.11,16.47 -43.09,15.07 -4.82,-0.45 -13.98,-0.98 -16.97,-5.49 -1.97,-2.96 -1.03,-8.18 -1.03,-11.58 12.75,3.02 25.56,9.28 39,4.94 8.27,-2.67 14.32,-11.34 7.77,-18.9 -11.71,-13.5 -36.6,-10.62 -44.85,-28.04 -5.83,-12.3 1.02,-25.27 13.08,-29.93 13.95,-5.4 32.8,-4 46,2.93 m -925,6.47 c -12.917,2.44 -17.595,13.91 -19.41,25.53 -3.422,21.91 6.332,47.03 32.41,42.67 15.25,-2.54 20.83,-17.88 21,-31.67 0.25,-21.38 -9.247,-41.21 -34,-36.53 m 143,0 c -12.92,2.44 -17.6,13.91 -19.41,25.53 -3.42,21.91 6.33,47.03 32.41,42.67 15.25,-2.54 20.83,-17.88 21,-31.67 0.25,-21.38 -9.25,-41.21 -34,-36.53 m 204,25.53 h 46 c 0,-5.96 -0.05,-11.71 -3.22,-17 -13.71,-22.8 -41.15,-2.98 -42.78,17 m 277,-25.47 c -32.77,7.56 -23.96,76.88 15,67.94 33.67,-7.73 24.84,-77.14 -15,-67.94 m 162,25.47 h 46 c -0.06,-7.6 -1.44,-16.03 -7.33,-21.47 -16.72,-15.44 -38.29,3.1 -38.67,21.47 m -907,-3 v 44 c 14.043,0 32.403,3.16 44.985,-4.36 12.545,-7.51 11.561,-29.36 -0.986,-36.22 -12.145,-6.65 -30.64,-3.42 -43.999,-3.42 z"
     id="path40"
     sodipodi:nodetypes="ccccccccsccccccccccccccccccccccccccccccccccccccscccccccccscccccccccsccccccccccccccccccccccccccccccccccccccscccccccccccccccccccccccccccccccccccccccccccccccccccccccccccccccccccccccccccccccccccccccccccccccccccccccccccsccccccccccccccccccccccccccccccccccccccccccccccccccccccccccccccccscccccccccccccccccccccccccccccccccccccccccccccccccccccccccccccccccccccccscccccccccccccccccccccccccccccccccccccccccscccccccccccccccccccccccccccccccccccccccc"
     clip-path="url(#clipPath86)"
     transform="matrix(0.00923202,0,0,0.00923202,27.418939,9.1832657)" />
</svg>
